# xmcd
#
# Track frame offsets: 
#        150
#        25680
#        42451
#        67356
#        90541
#        116170
#        145312
#        171298
#        191930
#        213851
#        243791
#
# Disc length: 3526 seconds
#
# Revision: 0
# Processed by: cddbd v1.5.2PL0 Copyright (c) Steve Scherf et al.
# Submitted via: ExactAudioCopy v0.95a5
#
DISCID=a30dc40b
DTITLE=Joe Bonamassa - 2014 Album Giveaway
DYEAR=2014
DGENRE=Blues
TTITLE0=I Know Where I Belong (From 'A New Day Yesterday')
TTITLE1=Mountain Time (From 'So, It's Like That')
TTITLE2=The River (From 'Had To Cry Today')
TTITLE3=Bridge to Better Days (From 'You and Me')
TTITLE4=One of These Days (From 'Sloe Gin')
TTITLE5=The Ballad of John Henry (From 'The Ballad Of John Henry')
TTITLE6=Blue and Evil (From 'Black Rock')
TTITLE7=Dust Bowl (From 'Dust Bowl')
TTITLE8=Driving Towards the Daylight (From 'Driving Towards The Daylig
TTITLE8=ht')
TTITLE9=Slow Train (From 'An Acoustic Evening At The Vienna Opera Hous
TTITLE9=e, Disc 1')
TTITLE10=Different Shades of Blue (From 'Different Shades of Blue')
EXTD=
EXTT0=
EXTT1=
EXTT2=
EXTT3=
EXTT4=
EXTT5=
EXTT6=
EXTT7=
EXTT8=
EXTT9=
EXTT10=
PLAYORDER=
